# xmcd CD database file
#
# Track frame offsets:
#	150
#	18972
#	37996
#	72463
#	84191
#	104508
#	116748
#	145782
#	155520
#	178550
#	196172
#	204322
#	221701
#
# Disc length: 3048 seconds
#
# Revision: 1
# Processed by: cddbd v1.5.2PL0 Copyright (c) Steve Scherf et al.
# Submitted via: CDex 1.51
#
DISCID=af0be60d
DTITLE=Alessandro Gwis - #2
DYEAR=2010
DGENRE=Jazz
TTITLE0=FORRO'
TTITLE1=O SOL DOS DIAS MAIS LINDOS
TTITLE2=BUSTER KEATON 
TTITLE3=THE BLESSED SADNESS OF FALL
TTITLE4=GRAND GUIGNOL
TTITLE5=THE BALLOONATIC
TTITLE6=SETTEMBRE
TTITLE7=IBO
TTITLE8=LANGHE OSCURE
TTITLE9=DON'T BLAME GWIS
TTITLE10=THE FLOOD
TTITLE11=CAIDA LENTA
TTITLE12=WIND ROSE GLITCHES
EXTD=YEAR: 2010
EXTT0=
EXTT1=
EXTT2=
EXTT3=
EXTT4=
EXTT5=
EXTT6=
EXTT7=
EXTT8=
EXTT9=
EXTT10=
EXTT11=
EXTT12=
PLAYORDER=
